<svg width="65" height="65" viewBox="0 0 65 65" fill="none" xmlns="http://www.w3.org/2000/svg">
<g clip-path="url(#clip0_1_165)">
<path d="M32.5 35.75C13.26 35.75 6.5 45.5 6.5 52V61.75H58.5V52C58.5 45.5 51.74 35.75 32.5 35.75Z" fill="#EFE8CE"/>
<path d="M32.5 32.5C40.5772 32.5 47.125 25.9522 47.125 17.875C47.125 9.79784 40.5772 3.25 32.5 3.25C24.4228 3.25 17.875 9.79784 17.875 17.875C17.875 25.9522 24.4228 32.5 32.5 32.5Z" fill="#EFE8CE"/>
<g clip-path="url(#clip1_1_165)">
<path d="M32.5 26C38.025 26 42.445 21.6125 42.445 16.25C42.445 10.8875 38.025 6.5 32.5 6.5C26.975 6.5 22.555 10.8875 22.555 16.25C22.555 21.6125 26.975 26 32.5 26ZM32.5 32.5C23.4 32.5 16.055 25.22 16.055 16.25C16.055 7.28 23.4 0 32.5 0C41.6 0 48.945 7.28 48.945 16.25C48.945 25.22 41.6 32.5 32.5 32.5ZM9.75 58.5H55.25V54.1775C55.25 48.49 47.7425 42.6075 32.5 42.6075C17.2575 42.6075 9.75 48.49 9.75 54.1775V58.5ZM32.5 36.1075C54.145 36.1075 61.75 46.93 61.75 54.1775V65H3.25V54.1775C3.25 46.93 10.855 36.1075 32.5 36.1075Z" fill="#00388B"/>
</g>
</g>
<defs>
<clipPath id="clip0_1_165">
<rect width="65" height="65" fill="white"/>
</clipPath>
<clipPath id="clip1_1_165">
<rect width="65" height="65" fill="white"/>
</clipPath>
</defs>
</svg>
