<svg width="57" height="65" viewBox="0 0 57 65" fill="none" xmlns="http://www.w3.org/2000/svg">
<g clip-path="url(#clip0_1_17)">
<path d="M28.4526 17.9001C20.3784 17.9001 13.8657 24.4128 13.8657 32.4871C13.8657 40.5613 20.3784 47.074 28.4526 47.074C36.5269 47.074 43.0396 40.5613 43.0396 32.4871C43.0396 24.4128 36.5269 17.9001 28.4526 17.9001ZM28.4526 41.9705C23.2349 41.9705 18.9692 37.7175 18.9692 32.4871C18.9692 27.2566 23.2222 23.0037 28.4526 23.0037C33.6831 23.0037 37.936 27.2566 37.936 32.4871C37.936 37.7175 33.6704 41.9705 28.4526 41.9705ZM47.0386 17.3035C47.0386 19.1951 45.5151 20.7058 43.6362 20.7058C41.7446 20.7058 40.2339 19.1824 40.2339 17.3035C40.2339 15.4246 41.7573 13.9011 43.6362 13.9011C45.5151 13.9011 47.0386 15.4246 47.0386 17.3035ZM56.6997 20.7566C56.4839 16.199 55.4429 12.1619 52.104 8.83569C48.7778 5.50952 44.7407 4.46851 40.1831 4.23999C35.4858 3.97339 21.4067 3.97339 16.7095 4.23999C12.1646 4.45581 8.12744 5.49683 4.78857 8.823C1.44971 12.1492 0.421387 16.1863 0.192871 20.7439C-0.0737305 25.4412 -0.0737305 39.5203 0.192871 44.2175C0.408691 48.7751 1.44971 52.8123 4.78857 56.1384C8.12744 59.4646 12.1519 60.5056 16.7095 60.7341C21.4067 61.0007 35.4858 61.0007 40.1831 60.7341C44.7407 60.5183 48.7778 59.4773 52.104 56.1384C55.4302 52.8123 56.4712 48.7751 56.6997 44.2175C56.9663 39.5203 56.9663 25.4539 56.6997 20.7566ZM50.6313 49.2576C49.6411 51.7458 47.7241 53.6628 45.2231 54.6658C41.478 56.1511 32.5913 55.8083 28.4526 55.8083C24.314 55.8083 15.4146 56.1384 11.6821 54.6658C9.19385 53.6755 7.27686 51.7585 6.27393 49.2576C4.78857 45.5125 5.13135 36.6257 5.13135 32.4871C5.13135 28.3484 4.80127 19.449 6.27393 15.7166C7.26416 13.2283 9.18115 11.3113 11.6821 10.3083C15.4272 8.823 24.314 9.16577 28.4526 9.16577C32.5913 9.16577 41.4907 8.83569 45.2231 10.3083C47.7114 11.2986 49.6284 13.2156 50.6313 15.7166C52.1167 19.4617 51.7739 28.3484 51.7739 32.4871C51.7739 36.6257 52.1167 45.5251 50.6313 49.2576Z" fill="#00388B"/>
</g>
<defs>
<clipPath id="clip0_1_17">
<rect width="56.88" height="65" fill="white"/>
</clipPath>
</defs>
</svg>
