<svg width="65" height="65" viewBox="0 0 65 65" fill="none" xmlns="http://www.w3.org/2000/svg">
<g clip-path="url(#clip0_1_139)">
<path d="M32.5013 0C18.2104 0 6.5 10.6424 6.5 23.6307C6.5 28.6637 8.26475 33.3391 11.2495 37.1845L29.328 62.9649C31.8597 65.9796 33.5413 65.4075 35.646 62.8062L55.5893 34.5819C55.9923 33.9176 56.3082 33.2118 56.5838 32.4896C57.8149 29.7505 58.5 26.7592 58.5 23.6307C58.5 10.6424 46.7922 0 32.5013 0ZM32.5254 8.0808C33.9645 8.0808 35.1812 8.59495 36.1751 9.62325C37.2034 10.6171 37.7175 11.8333 37.7175 13.273C37.7175 14.7121 37.2034 15.9458 36.1751 16.9734C35.1812 18.0017 33.9651 18.5146 32.5254 18.5146C31.0863 18.5146 29.8526 18.0011 28.8249 16.9741C27.7966 15.9458 27.2824 14.7121 27.2824 13.273C27.2824 11.8339 27.7803 10.6171 28.7742 9.62325C29.8018 8.59495 31.0518 8.0808 32.5254 8.0808ZM35.0539 21.6216H36.2401C36.9252 21.6216 37.4816 22.0577 37.4816 22.5966V35.5888C37.4816 36.7464 37.6571 37.5252 37.7091 37.6324C37.8456 37.854 37.9873 37.9762 38.1784 38.0653C38.2356 38.0887 38.9161 38.2369 39.9886 38.2369C40.6744 38.2369 41.2295 38.6737 41.2295 39.2119V39.975C41.2295 40.5132 40.6744 40.95 39.9886 40.95H25.3903C24.7052 40.95 24.1488 40.5132 24.1488 39.975V39.2119C24.1488 38.6737 24.7052 38.2369 25.3903 38.2369C26.5148 38.2369 27.2421 38.0724 27.2057 38.0887C27.3507 38.0237 27.4956 37.9164 27.649 37.6376L27.662 37.6135C27.7238 37.5095 27.9233 36.736 27.9233 35.5888C27.9233 31.4509 28.0793 30.5448 27.705 26.819C27.612 26.5083 27.4794 26.4037 27.5541 26.4504L27.5158 26.4264C27.5145 26.4257 27.4833 26.3887 27.2227 26.3887C26.9405 26.3887 26.455 26.4595 25.8251 26.6448C25.1881 26.832 24.479 26.5824 24.2326 26.0851L23.8544 25.3221C23.6087 24.8254 23.9167 24.2658 24.5453 24.0649L34.5871 21.6924C34.7353 21.6457 35.2144 21.6209 35.0545 21.6209L35.0539 21.6216Z" fill="#00388B"/>
</g>
<defs>
<clipPath id="clip0_1_139">
<rect width="65" height="65" fill="white"/>
</clipPath>
</defs>
</svg>
