<svg width="75" height="75" viewBox="0 0 75 75" fill="none" xmlns="http://www.w3.org/2000/svg">
<g clip-path="url(#clip0_1_170)">
<path d="M37.5 62.5L64.0625 34.375V21.875L53.125 17.1875L37.5 21.875L21.875 17.1875L10.9375 21.875V34.375L37.5 62.5Z" fill="#EFE8CE"/>
<path d="M37.5 25C37.5 25 37.5 25 39.8681 21.875C42.6072 18.2605 46.6869 15.625 51.5625 15.625C59.3291 15.625 65.625 21.921 65.625 29.6875C65.625 32.5784 64.7528 35.2656 63.2569 37.5C60.7344 41.2687 37.5 65.625 37.5 65.625M37.5 25C37.5 25 37.5 25 35.1319 21.875C32.3928 18.2605 28.3132 15.625 23.4375 15.625C15.671 15.625 9.375 21.921 9.375 29.6875C9.375 32.5784 10.2473 35.2656 11.743 37.5C14.2658 41.2687 37.5 65.625 37.5 65.625" stroke="#EFE8CE" stroke-width="5.41667" stroke-linecap="round"/>
<path d="M37.5 25C37.5 25 37.5 25 39.8681 21.875C42.6072 18.2605 46.6869 15.625 51.5625 15.625C59.3291 15.625 65.625 21.921 65.625 29.6875C65.625 32.5784 64.7528 35.2656 63.2569 37.5C60.7344 41.2687 37.5 65.625 37.5 65.625M37.5 25C37.5 25 37.5 25 35.1319 21.875C32.3928 18.2605 28.3132 15.625 23.4375 15.625C15.671 15.625 9.375 21.921 9.375 29.6875C9.375 32.5784 10.2473 35.2656 11.743 37.5C14.2658 41.2687 37.5 65.625 37.5 65.625" stroke="#00388B" stroke-width="5.41667" stroke-linecap="round"/>
</g>
<defs>
<clipPath id="clip0_1_170">
<rect width="75" height="75" fill="white"/>
</clipPath>
</defs>
</svg>
