<svg width="60" height="60" viewBox="0 0 60 60" fill="none" xmlns="http://www.w3.org/2000/svg">
<g clip-path="url(#clip0_1_36)">
<g clip-path="url(#clip1_1_36)">
<path d="M30 0C22.0435 0 14.4129 3.16071 8.7868 8.7868C3.16071 14.4129 0 22.0435 0 30C0 37.9565 3.16071 45.5871 8.7868 51.2132C14.4129 56.8393 22.0435 60 30 60C37.9565 60 45.5871 56.8393 51.2132 51.2132C56.8393 45.5871 60 37.9565 60 30C60 22.0435 56.8393 14.4129 51.2132 8.7868C45.5871 3.16071 37.9565 0 30 0Z" fill="#00388B"/>
<path d="M32.65 8.20754C31.9468 7.50529 30.9937 7.11084 30 7.11084C29.0062 7.11084 28.0531 7.50529 27.35 8.20754L13.2025 22.3475C12.499 23.051 12.1038 24.0052 12.1038 25C12.1038 25.9949 12.499 26.9491 13.2025 27.6525C13.9059 28.356 14.8601 28.7512 15.855 28.7512C16.8498 28.7512 17.804 28.356 18.5075 27.6525L26.25 19.9125V48.75C26.25 49.7446 26.6451 50.6984 27.3483 51.4017C28.0516 52.1049 29.0054 52.5 30 52.5C30.9945 52.5 31.9484 52.1049 32.6516 51.4017C33.3549 50.6984 33.75 49.7446 33.75 48.75V19.9125L41.49 27.6525C41.8383 28.0009 42.2518 28.2772 42.7069 28.4657C43.1621 28.6542 43.6498 28.7512 44.1425 28.7512C44.6351 28.7512 45.1229 28.6542 45.578 28.4657C46.0331 28.2772 46.4466 28.0009 46.795 27.6525C47.1433 27.3042 47.4196 26.8907 47.6081 26.4356C47.7966 25.9804 47.8937 25.4927 47.8937 25C47.8937 24.5074 47.7966 24.0196 47.6081 23.5645C47.4196 23.1094 47.1433 22.6959 46.795 22.3475L32.65 8.20754Z" fill="#EFE8CE"/>
</g>
</g>
<defs>
<clipPath id="clip0_1_36">
<rect width="60" height="60" fill="white"/>
</clipPath>
<clipPath id="clip1_1_36">
<rect width="60" height="60" fill="white"/>
</clipPath>
</defs>
</svg>
