<svg width="240" height="70" viewBox="0 0 240 70" fill="none" xmlns="http://www.w3.org/2000/svg">
<path d="M56.875 35.0001C56.875 33.9226 56.447 32.8893 55.6851 32.1274C54.9233 31.3656 53.8899 30.9376 52.8125 30.9376L20.6375 30.9376L31.3083 20.2667C32.0259 19.4966 32.4166 18.478 32.398 17.4256C32.3795 16.3731 31.9531 15.3689 31.2088 14.6246C30.4645 13.8803 29.4603 13.4539 28.4078 13.4354C27.3554 13.4168 26.3368 13.8075 25.5667 14.5251L7.96251 32.1292C7.20173 32.8909 6.77441 33.9235 6.77441 35.0001C6.77441 36.0766 7.20173 37.1092 7.96251 37.8709L25.5667 55.4751C25.9386 55.8742 26.3871 56.1943 26.8854 56.4164C27.3838 56.6384 27.9217 56.7578 28.4672 56.7674C29.0126 56.7771 29.5545 56.6767 30.0603 56.4724C30.5662 56.2681 31.0257 55.964 31.4115 55.5782C31.7972 55.1924 32.1013 54.7329 32.3057 54.227C32.51 53.7212 32.6103 53.1794 32.6007 52.6339C32.5911 52.0884 32.4717 51.5505 32.2497 51.0521C32.0276 50.5538 31.7075 50.1053 31.3083 49.7334L20.6375 39.0626H52.8125C55.055 39.0626 56.875 37.2426 56.875 35.0001Z" fill="#00388B"/>
<path d="M105.417 35.0001C105.417 36.5472 104.802 38.0309 103.708 39.1249C102.614 40.2188 101.13 40.8334 99.5833 40.8334C98.0362 40.8334 96.5525 40.2188 95.4585 39.1249C94.3646 38.0309 93.75 36.5472 93.75 35.0001C93.75 33.453 94.3646 31.9693 95.4585 30.8753C96.5525 29.7813 98.0362 29.1667 99.5833 29.1667C101.13 29.1667 102.614 29.7813 103.708 30.8753C104.802 31.9693 105.417 33.453 105.417 35.0001ZM146.25 35.0001C146.25 36.5472 145.635 38.0309 144.541 39.1249C143.447 40.2188 141.964 40.8334 140.417 40.8334C138.87 40.8334 137.386 40.2188 136.292 39.1249C135.198 38.0309 134.583 36.5472 134.583 35.0001C134.583 33.453 135.198 31.9693 136.292 30.8753C137.386 29.7813 138.87 29.1667 140.417 29.1667C141.964 29.1667 143.447 29.7813 144.541 30.8753C145.635 31.9693 146.25 33.453 146.25 35.0001Z" fill="#00388B"/>
<path opacity="0.5" d="M125.833 35.0001C125.833 36.5472 125.219 38.0309 124.125 39.1249C123.031 40.2188 121.547 40.8334 120 40.8334C118.453 40.8334 116.969 40.2188 115.875 39.1249C114.781 38.0309 114.167 36.5472 114.167 35.0001C114.167 33.453 114.781 31.9693 115.875 30.8753C116.969 29.7813 118.453 29.1667 120 29.1667C121.547 29.1667 123.031 29.7813 124.125 30.8753C125.219 31.9693 125.833 33.453 125.833 35.0001Z" fill="#00388B"/>
<path d="M183.125 34.9999C183.125 36.0774 183.553 37.1107 184.315 37.8726C185.077 38.6344 186.11 39.0624 187.187 39.0624H219.362L208.692 49.7333C207.974 50.5034 207.583 51.522 207.602 52.5744C207.621 53.6269 208.047 54.6311 208.791 55.3754C209.536 56.1197 210.54 56.5461 211.592 56.5646C212.645 56.5832 213.663 56.1925 214.433 55.4749L232.037 37.8708C232.798 37.1091 233.226 36.0765 233.226 34.9999C233.226 33.9234 232.798 32.8908 232.037 32.1291L214.433 14.5249C214.061 14.1258 213.613 13.8057 213.115 13.5836C212.616 13.3616 212.078 13.2422 211.533 13.2326C210.987 13.2229 210.446 13.3233 209.94 13.5276C209.434 13.7319 208.974 14.036 208.589 14.4218C208.203 14.8076 207.899 15.2671 207.694 15.773C207.49 16.2788 207.39 16.8206 207.399 17.3661C207.409 17.9116 207.528 18.4495 207.75 18.9479C207.972 19.4462 208.293 19.8947 208.692 20.2666L219.362 30.9374L187.187 30.9374C184.945 30.9374 183.125 32.7574 183.125 34.9999Z" fill="#00388B"/>
</svg>
