<svg width="65" height="65" viewBox="0 0 65 65" fill="none" xmlns="http://www.w3.org/2000/svg">
<path d="M32.5 4.0625C21.2862 4.0625 12.1875 12.2522 12.1875 22.3438C12.1875 38.5938 32.5 60.9375 32.5 60.9375C32.5 60.9375 52.8125 38.5938 52.8125 22.3438C52.8125 12.2522 43.7138 4.0625 32.5 4.0625ZM32.5 32.5C30.893 32.5 29.3221 32.0235 27.986 31.1307C26.6498 30.2379 25.6084 28.969 24.9935 27.4843C24.3785 25.9997 24.2176 24.366 24.5311 22.7899C24.8446 21.2138 25.6185 19.7661 26.7548 18.6298C27.8911 17.4935 29.3388 16.7196 30.9149 16.4061C32.491 16.0926 34.1247 16.2535 35.6093 16.8685C37.094 17.4834 38.3629 18.5248 39.2557 19.861C40.1485 21.1971 40.625 22.768 40.625 24.375C40.6226 26.5292 39.7659 28.5944 38.2426 30.1176C36.7194 31.6409 34.6542 32.4976 32.5 32.5Z" fill="#00388B"/>
</svg>
