<svg width="65" height="65" viewBox="0 0 65 65" fill="none" xmlns="http://www.w3.org/2000/svg">
<g clip-path="url(#clip0_1_175)">
<path d="M23.3878 4.35095C23.6167 4.48802 23.8164 4.66885 23.9754 4.8831C24.1344 5.09736 24.2496 5.34084 24.3145 5.59964C24.3794 5.85843 24.3927 6.12748 24.3536 6.39141C24.3144 6.65533 24.2237 6.90897 24.0866 7.13783L13.7434 24.375H51.2566L40.9094 7.13783C40.6325 6.6756 40.5505 6.12231 40.6816 5.59967C40.8126 5.07703 41.1459 4.62785 41.6081 4.35095C42.0703 4.07405 42.6236 3.9921 43.1463 4.12315C43.6689 4.25419 44.1181 4.58748 44.395 5.0497L55.9934 24.375H62.9688C63.5075 24.375 64.0241 24.589 64.4051 24.97C64.786 25.3509 65 25.8675 65 26.4063V30.4688C65 31.0075 64.786 31.5241 64.4051 31.9051C64.0241 32.286 63.5075 32.5 62.9688 32.5H2.03125C1.49253 32.5 0.975873 32.286 0.594939 31.9051C0.214006 31.5241 0 31.0075 0 30.4688V26.4063C0 25.8675 0.214006 25.3509 0.594939 24.97C0.975873 24.589 1.49253 24.375 2.03125 24.375H9.00656L20.5969 5.0497C20.7339 4.8208 20.9148 4.62114 21.129 4.46213C21.3433 4.30313 21.5868 4.18789 21.8456 4.123C22.1044 4.05811 22.3734 4.04484 22.6373 4.08396C22.9013 4.12307 23.159 4.21379 23.3878 4.35095ZM10.0262 62.6681L3.83094 36.5625H61.1691L54.9737 62.6681C54.8133 63.3327 54.434 63.9241 53.8968 64.347C53.3597 64.77 52.6959 65 52.0122 65H12.9878C12.3034 65.0009 11.6387 64.7713 11.1007 64.3483C10.5627 63.9252 10.1869 63.3334 10.0262 62.6681Z" fill="#EFE8CE"/>
<g clip-path="url(#clip1_1_175)">
<path d="M23.3878 4.35095C23.6167 4.48802 23.8164 4.66885 23.9754 4.8831C24.1344 5.09736 24.2496 5.34084 24.3145 5.59964C24.3794 5.85843 24.3927 6.12748 24.3536 6.39141C24.3144 6.65533 24.2237 6.90897 24.0866 7.13783L13.7434 24.375H51.2566L40.9094 7.13783C40.6325 6.6756 40.5505 6.12231 40.6816 5.59967C40.8126 5.07703 41.1459 4.62785 41.6081 4.35095C42.0703 4.07405 42.6236 3.9921 43.1463 4.12315C43.6689 4.25419 44.1181 4.58748 44.395 5.0497L55.9934 24.375H62.9688C63.5075 24.375 64.0241 24.589 64.4051 24.97C64.786 25.3509 65 25.8675 65 26.4063V30.4688C65 31.0075 64.786 31.5241 64.4051 31.9051C64.0241 32.286 63.5075 32.5 62.9688 32.5H2.03125C1.49253 32.5 0.975873 32.286 0.594939 31.9051C0.214006 31.5241 0 31.0075 0 30.4688V26.4063C0 25.8675 0.214006 25.3509 0.594939 24.97C0.975873 24.589 1.49253 24.375 2.03125 24.375H9.00656L20.5969 5.0497C20.7339 4.8208 20.9148 4.62114 21.129 4.46213C21.3433 4.30313 21.5868 4.18789 21.8456 4.123C22.1044 4.05811 22.3734 4.04484 22.6373 4.08396C22.9013 4.12307 23.159 4.21379 23.3878 4.35095ZM13.7881 60.9375L7.77563 36.5625H3.835L10.0303 62.6681C10.1908 63.3327 10.5701 63.9241 11.1072 64.347C11.6444 64.77 12.3082 65 12.9919 65H52.0163C52.7006 65.0009 53.3654 64.7713 53.9034 64.3483C54.4414 63.9252 54.8213 63.3334 54.9819 62.6681L61.165 36.5625H57.2162L51.2078 60.9375H13.7881Z" fill="#00388B"/>
</g>
</g>
<defs>
<clipPath id="clip0_1_175">
<rect width="65" height="65" fill="white"/>
</clipPath>
<clipPath id="clip1_1_175">
<rect width="65" height="65" fill="white"/>
</clipPath>
</defs>
</svg>
