<svg width="51" height="52" viewBox="0 0 51 52" fill="none" xmlns="http://www.w3.org/2000/svg">
<path d="M30.0549 42.1229C27.4615 43.1971 24.682 43.75 21.875 43.75C16.206 43.75 10.7692 41.498 6.76059 37.4894C2.752 33.4808 0.5 28.044 0.5 22.375C0.5 16.706 2.752 11.2692 6.76059 7.26059C10.7692 3.252 16.206 1 21.875 1C24.682 1 27.4615 1.55288 30.0549 2.62707C32.6482 3.70127 35.0046 5.27574 36.9894 7.26059C38.9743 9.24544 40.5487 11.6018 41.6229 14.1951C42.6971 16.7885 43.25 19.568 43.25 22.375C43.25 25.182 42.6971 27.9615 41.6229 30.5549C40.5487 33.1482 38.9743 35.5046 36.9894 37.4894C35.0046 39.4743 32.6482 41.0487 30.0549 42.1229ZM21.875 6.25C17.5984 6.25 13.4969 7.94888 10.4729 10.9729C7.44888 13.9969 5.75 18.0984 5.75 22.375C5.75 23.3364 6.13192 24.2584 6.81174 24.9383C7.49156 25.6181 8.41359 26 9.375 26C10.3364 26 11.2584 25.6181 11.9383 24.9383C12.6181 24.2584 13 23.3364 13 22.375C13 20.0212 13.935 17.7638 15.5994 16.0994C17.2638 14.435 19.5212 13.5 21.875 13.5C22.8364 13.5 23.7584 13.1181 24.4383 12.4383C25.1181 11.7584 25.5 10.8364 25.5 9.875C25.5 8.91359 25.1181 7.99156 24.4383 7.31174C23.7584 6.63192 22.8364 6.25 21.875 6.25Z" fill="#00388B" stroke="#00388B"/>
<path d="M50 50.5L43.75 44.25L50 50.5Z" fill="#00388B"/>
<path d="M50 50.5L43.75 44.25" stroke="#00388B" stroke-width="2" stroke-linecap="round"/>
</svg>
