<svg width="65" height="65" viewBox="0 0 65 65" fill="none" xmlns="http://www.w3.org/2000/svg">
<path d="M59.5834 45.8251V53.9501C59.5864 54.7044 59.4319 55.451 59.1298 56.1421C58.8276 56.8332 58.3844 57.4536 57.8286 57.9635C57.2728 58.4734 56.6166 58.8616 55.9021 59.1033C55.1875 59.3449 54.4304 59.4347 53.6792 59.3668C45.3452 58.4612 37.3398 55.6134 30.3063 51.0522C23.7625 46.894 18.2145 41.346 14.0563 34.8022C9.47915 27.7367 6.6307 19.6924 5.74171 11.3209C5.67403 10.572 5.76304 9.81716 6.00306 9.1045C6.24309 8.39184 6.62888 7.73697 7.13587 7.18157C7.64285 6.62618 8.25993 6.18244 8.94781 5.8786C9.63569 5.57476 10.3793 5.41747 11.1313 5.41677H19.2563C20.5707 5.40383 21.8449 5.86927 22.8415 6.72633C23.8381 7.5834 24.489 8.7736 24.673 10.0751C25.0159 12.6753 25.6519 15.2283 26.5688 17.6855C26.9332 18.6549 27.012 19.7084 26.796 20.7212C26.58 21.7341 26.0782 22.6637 25.35 23.4001L21.9105 26.8397C25.7659 33.6201 31.38 39.2342 38.1605 43.0897L41.6 39.6501C42.3364 38.9219 43.2661 38.4201 44.2789 38.2041C45.2917 37.9881 46.3452 38.067 47.3146 38.4313C49.7718 39.3483 52.3249 39.9842 54.925 40.3272C56.2407 40.5128 57.4422 41.1754 58.3011 42.1891C59.16 43.2028 59.6163 44.4969 59.5834 45.8251Z" stroke="#00388B" stroke-width="5.41667" stroke-linecap="round" stroke-linejoin="round"/>
</svg>
